<?xml version="1.0" encoding="utf-8"?>
<svg x="0pt" y="0pt" width="900pt" height="600pt" viewBox="0 0 900 600" xmlns="http://www.w3.org/2000/svg" xmlns:xlink="http://www.w3.org/1999/xlink">
  <g id="1">
    <title>FrowJam Logo</title>
    <defs>
      <title>Frow</title>
      <g id="2">
        <defs>
          <path id="3" d="M169.957,187.329 C169.957,187.329,169.957,266.889,169.957,266.889 C169.957,268.796,165.195,270.312,155.67,271.439 C146.144,272.566,134.455,273.129,120.6,273.129 C106.745,273.129,99.818,271.049,99.818,266.889 C99.818,266.889,99.818,187.329,99.818,187.329 C99.818,187.329,86.5694,187.329,86.5694,187.329 C81.8935,187.329,79.5555,179.442,79.5555,163.669 C79.5555,157.429,80.6379,151.579,82.8027,146.119 C84.9675,140.659,87.7817,137.929,91.2454,137.929 C91.2454,137.929,99.818,137.929,99.818,137.929 C99.818,126.316,101.506,116.176,104.884,107.509 C108.261,98.8423,112.33,92.2123,117.093,87.6189 C121.856,83.0256,127.614,79.3423,134.368,76.5689 C144.413,72.4089,155.843,70.3289,168.658,70.3289 C200.87,70.3289,216.976,75.6156,216.976,86.1889 C216.976,97.6289,215.851,106.989,213.599,114.269 C211.348,121.549,208.317,125.189,204.507,125.189 C202.949,125.189,200.048,124.626,195.805,123.499 C191.562,122.372,187.535,121.809,183.725,121.809 C173.681,121.809,168.658,125.276,168.658,132.209 C168.658,133.942,169.091,135.849,169.957,137.929 C169.957,137.929,204.507,137.929,204.507,137.929 C209.183,137.929,211.521,145.556,211.521,160.809 C211.521,167.569,210.525,173.679,208.534,179.139 C206.542,184.599,203.901,187.329,200.611,187.329 C200.611,187.329,169.957,187.329,169.957,187.329 z M301.403,190.969 C301.403,190.969,301.403,266.889,301.403,266.889 C301.403,268.796,296.511,270.312,286.726,271.439 C276.941,272.566,266.81,273.129,256.332,273.129 C245.855,273.129,239.057,272.652,235.94,271.699 C232.823,270.746,231.264,269.142,231.264,266.889 C231.264,266.889,231.264,138.709,231.264,138.709 C231.264,135.416,236.07,131.862,245.682,128.049 C255.293,124.236,265.771,122.329,277.114,122.329 C288.458,122.329,294.822,125.449,296.208,131.689 C296.208,131.689,298.806,143.649,298.806,143.649 C298.806,143.649,300.624,143.649,300.624,143.649 C303.049,137.062,308.85,131.472,318.029,126.879 C327.208,122.286,336.386,119.989,345.565,119.989 C354.744,119.989,361.195,121.462,364.918,124.409 C368.642,127.356,370.503,131.126,370.503,135.719 C370.503,140.312,370.157,146.162,369.464,153.269 C368.772,160.376,367.083,168.089,364.399,176.409 C361.714,184.729,358.207,188.889,353.878,188.889 C352.146,188.889,346.691,187.589,337.512,184.989 C328.333,182.389,320.757,181.089,314.782,181.089 C308.807,181.089,305.083,181.956,303.611,183.689 C302.139,185.422,301.403,187.849,301.403,190.969 z M463.503,275.469 C450.514,275.469,439.344,274.342,429.992,272.089 C420.64,269.836,412.154,265.849,404.534,260.129 C388.774,248.689,380.895,227.369,380.895,196.169 C380.895,168.436,388.948,148.589,405.054,136.629 C420.121,125.536,439.604,119.989,463.503,119.989 C473.721,119.989,482.467,120.466,489.74,121.419 C497.014,122.372,504.417,124.409,511.951,127.529 C519.484,130.649,525.546,134.896,530.135,140.269 C534.725,145.642,538.491,153.052,541.435,162.499 C544.38,171.946,545.852,183.169,545.852,196.169 C545.852,222.516,538.405,242.319,523.511,255.579 C508.617,268.839,488.615,275.469,463.503,275.469 z M454.411,224.769 C455.623,231.009,456.879,234.736,458.178,235.949 C459.476,237.162,461.208,237.769,463.373,237.769 C465.538,237.769,467.27,237.162,468.569,235.949 C469.867,234.736,471.08,231.009,472.205,224.769 C473.331,218.529,473.894,210.686,473.894,201.239 C473.894,191.792,473.677,184.512,473.245,179.399 C472.812,174.286,472.292,170.342,471.686,167.569 C471.08,164.796,470.257,162.629,469.218,161.069 C467.659,158.816,465.798,157.689,463.633,157.689 C461.468,157.689,459.693,158.339,458.307,159.639 C456.922,160.939,455.623,164.752,454.411,171.079 C453.199,177.406,452.592,186.376,452.592,197.989 C452.592,209.602,453.199,218.529,454.411,224.769 z M758.607,266.889 C756.356,271.049,744.623,273.129,723.408,273.129 C702.193,273.129,691.152,271.049,690.286,266.889 C690.286,266.889,681.454,219.569,681.454,219.569 C681.454,219.569,677.817,219.569,677.817,219.569 C677.817,219.569,669.504,266.889,669.504,266.889 C668.985,271.049,653.831,273.129,624.044,273.129 C615.731,273.129,610.232,272.652,607.548,271.699 C604.864,270.746,603.002,269.142,601.963,266.889 C569.751,187.676,553.645,145.989,553.645,141.829 C553.645,137.669,559.923,133.379,572.479,128.959 C585.034,124.539,597.114,122.329,608.717,122.329 C623.611,122.329,631.318,126.316,631.837,134.289 C631.837,134.289,640.669,205.529,640.669,205.529 C640.669,205.529,643.787,205.529,643.787,205.529 C643.787,205.529,646.904,148.069,646.904,148.069 C647.077,143.736,651.493,139.922,660.153,136.629 C668.812,133.336,677.557,131.689,686.39,131.689 C695.222,131.689,701.846,132.772,706.263,134.939 C710.679,137.106,712.973,139.749,713.147,142.869 C713.147,142.869,716.004,205.529,716.004,205.529 C716.004,205.529,718.862,205.529,718.862,205.529 C718.862,205.529,727.434,138.709,727.434,138.709 C727.954,134.549,733.799,130.779,744.969,127.399 C756.139,124.019,765.968,122.329,774.454,122.329 C782.94,122.329,789.607,123.542,794.456,125.969 C802.423,129.782,806.406,134.289,806.406,139.489 C806.406,140.009,798.569,161.156,782.896,202.929 C767.223,244.702,759.127,266.022,758.607,266.889 z"/>
        </defs>
        <use xlink:href="#3" style="fill:#000000;fill-opacity:1;fill-rule:nonzero;opacity:1;stroke:none;"/>
      </g>
    </defs>
    <use xlink:href="#2"/>
    <defs>
      <title>Jam</title>
      <g id="4">
        <defs>
          <path id="5" d="M170.396,465.835 C170.396,487.155,165.586,503.102,155.966,513.675 C146.346,524.248,133.13,529.535,116.316,529.535 C99.5031,529.535,88.7131,527.932,83.9465,524.725 C79.1798,521.518,76.7965,514.325,76.7965,503.145 C76.7965,491.965,78.9631,486.115,83.2965,485.595 C89.3631,484.728,93.6531,483.168,96.1665,480.915 C98.6798,478.662,99.9365,474.502,99.9365,468.435 C99.9365,468.435,99.9365,359.495,99.9365,359.495 C99.9365,355.682,104.833,351.912,114.626,348.185 C124.42,344.458,135.036,342.595,146.476,342.595 C162.423,342.595,170.396,346.668,170.396,354.815 C170.396,354.815,170.396,465.835,170.396,465.835 z M171.696,309.055 C171.696,325.175,159.563,333.235,135.296,333.235 C111.03,333.235,98.8965,325.348,98.8965,309.575 C98.8965,300.735,102.146,294.668,108.646,291.375 C115.146,288.082,124.203,286.435,135.816,286.435 C147.43,286.435,156.313,287.952,162.466,290.985 C168.62,294.018,171.696,300.042,171.696,309.055 z M239.296,491.575 C223.523,491.575,211.13,487.848,202.116,480.395 C198.476,477.275,195.313,472.682,192.626,466.615 C189.94,460.548,188.596,453.442,188.596,445.295 C188.596,437.148,190.546,430.042,194.446,423.975 C198.346,417.908,203.07,413.228,208.616,409.935 C214.163,406.642,220.663,403.955,228.116,401.875 C239.383,398.928,251.776,397.455,265.296,397.455 C265.296,397.455,273.876,397.455,273.876,397.455 C273.876,390.348,271.45,385.322,266.596,382.375 C264.516,381.162,261.353,380.555,257.106,380.555 C252.86,380.555,247.746,381.682,241.766,383.935 C235.786,386.188,230.803,388.485,226.816,390.825 C222.83,393.165,220.143,394.335,218.756,394.335 C215.636,394.335,211.39,390.218,206.016,381.985 C200.643,373.752,197.956,366.255,197.956,359.495 C197.956,357.242,201.163,354.295,207.576,350.655 C213.99,347.015,223.046,343.678,234.746,340.645 C246.446,337.612,257.843,336.095,268.936,336.095 C280.03,336.095,289.606,337.005,297.666,338.825 C305.726,340.645,312.313,342.855,317.426,345.455 C322.54,348.055,326.873,351.522,330.426,355.855 C333.98,360.188,336.666,364.088,338.486,367.555 C340.306,371.022,341.65,375.528,342.516,381.075 C343.73,387.488,344.336,395.375,344.336,404.735 C344.336,404.735,344.336,482.995,344.336,482.995 C344.336,484.902,339.7,486.418,330.426,487.545 C321.153,488.672,311.966,489.235,302.866,489.235 C293.766,489.235,287.873,488.975,285.186,488.455 C282.5,487.935,280.896,487.328,280.376,486.635 C279.856,485.942,279.423,484.728,279.076,482.995 C279.076,482.995,276.996,468.175,276.996,468.175 C276.996,468.175,274.916,468.175,274.916,468.175 C270.583,483.775,258.71,491.575,239.296,491.575 z M274.136,448.415 C274.136,448.415,274.136,417.995,274.136,417.995 C269.63,417.995,265.99,419.902,263.216,423.715 C260.443,427.528,259.056,431.862,259.056,436.715 C259.056,448.155,261.656,453.875,266.856,453.875 C269.11,453.875,270.886,453.312,272.186,452.185 C273.486,451.058,274.136,449.802,274.136,448.415 z M599.396,403.435 C599.396,403.435,599.396,482.995,599.396,482.995 C599.396,484.902,594.5,486.418,584.706,487.545 C574.913,488.672,564.773,489.235,554.286,489.235 C543.8,489.235,536.996,488.758,533.876,487.805 C530.756,486.852,529.196,485.248,529.196,482.995 C529.196,482.995,529.196,410.975,529.196,410.975 C529.196,386.188,526.683,373.795,521.656,373.795 C520.443,373.795,519.23,374.315,518.017,375.355 C516.803,376.395,516.196,378.215,516.196,380.815 C516.196,380.815,516.196,482.995,516.196,482.995 C516.196,484.902,511.3,486.418,501.507,487.545 C491.713,488.672,481.53,489.235,470.957,489.235 C460.383,489.235,453.58,488.758,450.546,487.805 C447.513,486.852,445.996,485.248,445.996,482.995 C445.996,482.995,445.996,410.975,445.996,410.975 C445.996,391.735,444.783,380.208,442.356,376.395 C441.143,374.662,439.583,373.795,437.676,373.795 C434.383,373.795,432.736,376.135,432.736,380.815 C432.736,380.815,432.736,482.995,432.736,482.995 C432.736,484.902,427.797,486.418,417.917,487.545 C408.036,488.672,397.853,489.235,387.366,489.235 C376.88,489.235,370.12,488.758,367.086,487.805 C364.053,486.852,362.536,485.248,362.536,482.995 C362.536,482.995,362.536,354.815,362.536,354.815 C362.536,351.175,367.52,347.535,377.486,343.895 C387.453,340.255,397.983,338.435,409.077,338.435 C420.17,338.435,426.41,341.642,427.797,348.055 C427.797,348.055,430.137,359.495,430.137,359.495 C430.137,359.495,431.956,359.495,431.956,359.495 C436.983,349.615,445.303,342.595,456.917,338.435 C461.77,336.875,468.01,336.095,475.637,336.095 C490.89,336.095,501.983,343.895,508.916,359.495 C511.17,354.295,516.803,349.095,525.817,343.895 C534.83,338.695,544.796,336.095,555.716,336.095 C572.877,336.095,584.447,341.425,590.427,352.085 C596.406,362.745,599.396,379.862,599.396,403.435 z"/>
        </defs>
        <use xlink:href="#5" style="fill:#000000;fill-opacity:1;fill-rule:nonzero;opacity:1;stroke:none;"/>
      </g>
    </defs>
    <use xlink:href="#4"/>
  </g>
</svg>
